<svg width="262" height="262" viewBox="0 0 262 262" fill="none" xmlns="http://www.w3.org/2000/svg">
<path d="M258.172 125.806C252.254 186.71 223.106 251.024 135.614 258.49C58.6821 260.05 4.14081 209.404 2.63829 135.303C1.13577 61.2016 58.637 4.64351 135.569 3.08359C259.629 -7.35314 258.162 59.064 258.172 125.806Z" fill="url(#paint0_linear_395_149)"/>
<path d="M59 78.0876V45.9153C59 43.7426 60.7835 41.9798 62.9716 41.9962L189.129 42.8653C191.788 42.8817 193.662 45.4561 192.861 47.965L187.189 65.7155C187.073 66.0763 186.916 66.4124 186.718 66.7322L159.231 111.285C157.324 114.376 159.561 118.352 163.219 118.352H187.28C189.864 118.352 191.953 120.427 191.953 122.993V150.229C191.953 152.812 189.831 154.895 187.23 154.87L137.086 154.354C135.459 154.337 133.94 155.165 133.073 156.534L120.762 176.064C118.813 179.155 121.051 183.164 124.725 183.164H199.327C201.911 183.164 204 185.239 204 187.805V215.952C204 218.108 202.25 219.854 200.078 219.871L62.9633 220.609C60.7752 220.617 59 218.862 59 216.69V196.717C59 194.397 59.6853 192.134 60.9652 190.199L127.425 89.9186C129.473 86.8358 127.244 82.7282 123.52 82.7282H63.6734C61.089 82.7282 59 80.6539 59 78.0876Z" fill="black" stroke="black" stroke-miterlimit="10"/>
<path d="M191.268 148.579C191.268 150.352 190.937 151.95 190.046 153.05C189.234 154.051 187.884 154.726 185.624 154.642L185.143 154.613H185.125L134.911 154.097C134.414 154.086 133.956 154.307 133.65 154.679L133.529 154.847L120.615 175.327L120.613 175.33C120.569 175.401 120.502 175.528 120.438 175.649C120.367 175.781 120.287 175.931 120.204 176.075C120.12 176.222 120.04 176.352 119.973 176.445C119.967 176.453 119.96 176.46 119.955 176.467L100.902 177.708C100.591 177.695 100.401 177.614 100.286 177.526C100.17 177.438 100.093 177.313 100.052 177.152C99.9749 176.85 100.04 176.451 100.21 176.116L100.289 175.978L100.29 175.977L122.897 140.262C123.942 138.606 125.714 137.547 127.665 137.39L128.058 137.37L175.114 136.502L175.113 136.501C176.709 136.476 178.234 135.891 179.438 134.864L179.674 134.653V134.652L191.268 123.777V148.579Z" fill="black" stroke="black"/>
<path d="M203.152 215.63C203.152 217.615 201.589 219.241 199.605 219.354L199.413 219.36L61.8359 220.114L61.7393 220.11C61.2457 220.068 60.6261 219.693 60.2129 219.17C59.9995 218.9 59.8806 218.636 59.8525 218.426C59.8278 218.24 59.8708 218.104 59.9893 217.99L79.1621 203.676H185.671L185.814 203.546L203.152 187.824V215.63Z" fill="black" stroke="black"/>
<path d="M81.5664 65.5781H132.867C133.623 65.5781 133.994 66.4706 133.483 67L118.726 82.1543C118.67 82.2094 118.612 82.2305 118.558 82.2305H62.5674C62.3563 82.2302 62.2693 81.9831 62.4053 81.8506L62.4043 81.8496L77.4404 67.249C78.5437 66.1762 80.0198 65.5782 81.5664 65.5781Z" fill="black" stroke="black"/>
<defs>
<linearGradient id="paint0_linear_395_149" x1="205" y1="47.9961" x2="-23" y2="260.996" gradientUnits="userSpaceOnUse">
<stop stop-color="#FFDB6E"/>
<stop offset="1" stop-color="#FFCF3D"/>
</linearGradient>
</defs>
</svg>
